<svg width="22" height="24" viewBox="0 0 22 24" fill="none" xmlns="http://www.w3.org/2000/svg">
<path d="M13.75 15.75C13.75 16.1644 13.4423 16.5 13.0625 16.5H8.9375C8.55766 16.5 8.25 16.1644 8.25 15.75V13.5H0V20.25C0 21.45 0.9625 22.5 2.0625 22.5H19.9375C21.0375 22.5 22 21.45 22 20.25V13.5H13.75V15.75ZM19.9375 6H16.5V3.75C16.5 2.55 15.5375 1.5 14.4375 1.5H7.5625C6.4625 1.5 5.5 2.55 5.5 3.75V6H2.0625C0.9625 6 0 7.05 0 8.25V12H22V8.25C22 7.05 21.0375 6 19.9375 6ZM13.75 6H8.25V4.5H13.75V6Z" fill="black"/>
</svg>
