<svg width="186" height="63" viewBox="0 0 186 63" fill="none" xmlns="http://www.w3.org/2000/svg">
<g filter="url(#filter0_d)">
<path d="M24 55H17.8462L4 12.3894H23.6154V10L25.9231 12.3894L29 15.177L23.6154 19.5575V17.1681H10.9231L21.5 50.5L39.3846 12.3894H44L34 33.6947L24 55Z" fill="url(#paint0_linear)"/>
</g>
<path d="M56.64 44.36C54.5867 44.36 52.72 43.8933 51.04 42.96C49.3867 42.0267 48.08 40.7067 47.12 39C46.1867 37.2667 45.72 35.2667 45.72 33C45.72 30.76 46.2 28.7867 47.16 27.08C48.1467 25.3467 49.48 24.0267 51.16 23.12C52.84 22.1867 54.72 21.72 56.8 21.72C58.88 21.72 60.76 22.1867 62.44 23.12C64.12 24.0267 65.44 25.3333 66.4 27.04C67.3867 28.7467 67.88 30.7333 67.88 33C67.88 35.2667 67.3733 37.2667 66.36 39C65.3733 40.7067 64.0267 42.0267 62.32 42.96C60.6133 43.8933 58.72 44.36 56.64 44.36ZM56.64 41.16C57.9467 41.16 59.1733 40.8533 60.32 40.24C61.4667 39.6267 62.3867 38.7067 63.08 37.48C63.8 36.2533 64.16 34.76 64.16 33C64.16 31.24 63.8133 29.7467 63.12 28.52C62.4267 27.2933 61.52 26.3867 60.4 25.8C59.28 25.1867 58.0667 24.88 56.76 24.88C55.4267 24.88 54.2 25.1867 53.08 25.8C51.9867 26.3867 51.1067 27.2933 50.44 28.52C49.7733 29.7467 49.44 31.24 49.44 33C49.44 34.7867 49.76 36.2933 50.4 37.52C51.0667 38.7467 51.9467 39.6667 53.04 40.28C54.1333 40.8667 55.3333 41.16 56.64 41.16ZM91.5459 22.08L78.3459 54.32H74.5859L78.9059 43.76L70.0659 22.08H74.1059L80.9859 39.84L87.7859 22.08H91.5459ZM93.845 32.96C93.845 30.72 94.2983 28.76 95.205 27.08C96.1117 25.3733 97.3517 24.0533 98.925 23.12C100.525 22.1867 102.298 21.72 104.245 21.72C106.165 21.72 107.832 22.1333 109.245 22.96C110.658 23.7867 111.712 24.8267 112.405 26.08V22.08H116.085V44H112.405V39.92C111.685 41.2 110.605 42.2667 109.165 43.12C107.752 43.9467 106.098 44.36 104.205 44.36C102.258 44.36 100.498 43.88 98.925 42.92C97.3517 41.96 96.1117 40.6133 95.205 38.88C94.2983 37.1467 93.845 35.1733 93.845 32.96ZM112.405 33C112.405 31.3467 112.072 29.9067 111.405 28.68C110.738 27.4533 109.832 26.52 108.685 25.88C107.565 25.2133 106.325 24.88 104.965 24.88C103.605 24.88 102.365 25.2 101.245 25.84C100.125 26.48 99.2317 27.4133 98.565 28.64C97.8983 29.8667 97.565 31.3067 97.565 32.96C97.565 34.64 97.8983 36.1067 98.565 37.36C99.2317 38.5867 100.125 39.5333 101.245 40.2C102.365 40.84 103.605 41.16 104.965 41.16C106.325 41.16 107.565 40.84 108.685 40.2C109.832 39.5333 110.738 38.5867 111.405 37.36C112.072 36.1067 112.405 34.6533 112.405 33ZM131.276 21.72C133.17 21.72 134.823 22.1333 136.236 22.96C137.676 23.7867 138.743 24.8267 139.436 26.08V22.08H143.116V44.48C143.116 46.48 142.69 48.2533 141.836 49.8C140.983 51.3733 139.756 52.6 138.156 53.48C136.583 54.36 134.743 54.8 132.636 54.8C129.756 54.8 127.356 54.12 125.436 52.76C123.516 51.4 122.383 49.5467 122.036 47.2H125.636C126.036 48.5333 126.863 49.6 128.116 50.4C129.37 51.2267 130.876 51.64 132.636 51.64C134.636 51.64 136.263 51.0133 137.516 49.76C138.796 48.5067 139.436 46.7467 139.436 44.48V39.88C138.716 41.16 137.65 42.2267 136.236 43.08C134.823 43.9333 133.17 44.36 131.276 44.36C129.33 44.36 127.556 43.88 125.956 42.92C124.383 41.96 123.143 40.6133 122.236 38.88C121.33 37.1467 120.876 35.1733 120.876 32.96C120.876 30.72 121.33 28.76 122.236 27.08C123.143 25.3733 124.383 24.0533 125.956 23.12C127.556 22.1867 129.33 21.72 131.276 21.72ZM139.436 33C139.436 31.3467 139.103 29.9067 138.436 28.68C137.77 27.4533 136.863 26.52 135.716 25.88C134.596 25.2133 133.356 24.88 131.996 24.88C130.636 24.88 129.396 25.2 128.276 25.84C127.156 26.48 126.263 27.4133 125.596 28.64C124.93 29.8667 124.596 31.3067 124.596 32.96C124.596 34.64 124.93 36.1067 125.596 37.36C126.263 38.5867 127.156 39.5333 128.276 40.2C129.396 40.84 130.636 41.16 131.996 41.16C133.356 41.16 134.596 40.84 135.716 40.2C136.863 39.5333 137.77 38.5867 138.436 37.36C139.103 36.1067 139.436 34.6533 139.436 33ZM169.268 32.2C169.268 32.8933 169.228 33.6267 169.148 34.4H151.628C151.761 36.56 152.494 38.2533 153.828 39.48C155.188 40.68 156.828 41.28 158.748 41.28C160.321 41.28 161.628 40.92 162.668 40.2C163.734 39.4533 164.481 38.4667 164.908 37.24H168.828C168.241 39.3467 167.068 41.0667 165.308 42.4C163.548 43.7067 161.361 44.36 158.748 44.36C156.668 44.36 154.801 43.8933 153.148 42.96C151.521 42.0267 150.241 40.7067 149.308 39C148.374 37.2667 147.908 35.2667 147.908 33C147.908 30.7333 148.361 28.7467 149.268 27.04C150.174 25.3333 151.441 24.0267 153.068 23.12C154.721 22.1867 156.614 21.72 158.748 21.72C160.828 21.72 162.668 22.1733 164.268 23.08C165.868 23.9867 167.094 25.24 167.948 26.84C168.828 28.4133 169.268 30.2 169.268 32.2ZM165.508 31.44C165.508 30.0533 165.201 28.8667 164.588 27.88C163.974 26.8667 163.134 26.1067 162.068 25.6C161.028 25.0667 159.868 24.8 158.588 24.8C156.748 24.8 155.174 25.3867 153.868 26.56C152.588 27.7333 151.854 29.36 151.668 31.44H165.508ZM177.712 25.64C178.352 24.3867 179.259 23.4133 180.432 22.72C181.632 22.0267 183.086 21.68 184.792 21.68V25.44H183.832C179.752 25.44 177.712 27.6533 177.712 32.08V44H174.072V22.08H177.712V25.64Z" fill="#03030F"/>
<defs>
<filter id="filter0_d" x="0" y="10" width="48" height="53" filterUnits="userSpaceOnUse" color-interpolation-filters="sRGB">
<feFlood flood-opacity="0" result="BackgroundImageFix"/>
<feColorMatrix in="SourceAlpha" type="matrix" values="0 0 0 0 0 0 0 0 0 0 0 0 0 0 0 0 0 0 127 0"/>
<feOffset dy="4"/>
<feGaussianBlur stdDeviation="2"/>
<feColorMatrix type="matrix" values="0 0 0 0 0 0 0 0 0 0 0 0 0 0 0 0 0 0 0.25 0"/>
<feBlend mode="normal" in2="BackgroundImageFix" result="effect1_dropShadow"/>
<feBlend mode="normal" in="SourceGraphic" in2="effect1_dropShadow" result="shape"/>
</filter>
<linearGradient id="paint0_linear" x1="24" y1="10" x2="24" y2="55" gradientUnits="userSpaceOnUse">
<stop stop-color="#03030F"/>
<stop offset="1" stop-color="#1214A1"/>
</linearGradient>
</defs>
</svg>
