<svg width="256" height="84" viewBox="0 0 256 84" fill="none" xmlns="http://www.w3.org/2000/svg">
<g filter="url(#filter0_d)">
<path d="M34 74H24.7692L4 12.4513H33.4231V9L36.8846 12.4513L41.5 16.4779L33.4231 22.8053V19.354H14.3846L30.25 67.5L57.0769 12.4513H64L49 43.2257L34 74Z" fill="url(#paint0_linear)"/>
</g>
<g filter="url(#filter1_d)">
<path d="M75.38 61.495C72.5567 61.495 69.99 60.8533 67.68 59.57C65.4067 58.2867 63.61 56.4717 62.29 54.125C61.0067 51.7417 60.365 48.9917 60.365 45.875C60.365 42.795 61.025 40.0817 62.345 37.735C63.7017 35.3517 65.535 33.5367 67.845 32.29C70.155 31.0067 72.74 30.365 75.6 30.365C78.46 30.365 81.045 31.0067 83.355 32.29C85.665 33.5367 87.48 35.3333 88.8 37.68C90.1567 40.0267 90.835 42.7583 90.835 45.875C90.835 48.9917 90.1383 51.7417 88.745 54.125C87.3883 56.4717 85.5367 58.2867 83.19 59.57C80.8433 60.8533 78.24 61.495 75.38 61.495ZM75.38 57.095C77.1767 57.095 78.8633 56.6733 80.44 55.83C82.0167 54.9867 83.2817 53.7217 84.235 52.035C85.225 50.3483 85.72 48.295 85.72 45.875C85.72 43.455 85.2433 41.4017 84.29 39.715C83.3367 38.0283 82.09 36.7817 80.55 35.975C79.01 35.1317 77.3417 34.71 75.545 34.71C73.7117 34.71 72.025 35.1317 70.485 35.975C68.9817 36.7817 67.7717 38.0283 66.855 39.715C65.9383 41.4017 65.48 43.455 65.48 45.875C65.48 48.3317 65.92 50.4033 66.8 52.09C67.7167 53.7767 68.9267 55.0417 70.43 55.885C71.9333 56.6917 73.5833 57.095 75.38 57.095ZM123.376 30.86L105.226 75.19H100.056L105.996 60.67L93.8407 30.86H99.3957L108.856 55.28L118.206 30.86H123.376ZM126.537 45.82C126.537 42.74 127.16 40.045 128.407 37.735C129.654 35.3883 131.359 33.5733 133.522 32.29C135.722 31.0067 138.16 30.365 140.837 30.365C143.477 30.365 145.769 30.9333 147.712 32.07C149.655 33.2067 151.104 34.6367 152.057 36.36V30.86H157.117V61H152.057V55.39C151.067 57.15 149.582 58.6167 147.602 59.79C145.659 60.9267 143.385 61.495 140.782 61.495C138.105 61.495 135.685 60.835 133.522 59.515C131.359 58.195 129.654 56.3433 128.407 53.96C127.16 51.5767 126.537 48.8633 126.537 45.82ZM152.057 45.875C152.057 43.6017 151.599 41.6217 150.682 39.935C149.765 38.2483 148.519 36.965 146.942 36.085C145.402 35.1683 143.697 34.71 141.827 34.71C139.957 34.71 138.252 35.15 136.712 36.03C135.172 36.91 133.944 38.1933 133.027 39.88C132.11 41.5667 131.652 43.5467 131.652 45.82C131.652 48.13 132.11 50.1467 133.027 51.87C133.944 53.5567 135.172 54.8583 136.712 55.775C138.252 56.655 139.957 57.095 141.827 57.095C143.697 57.095 145.402 56.655 146.942 55.775C148.519 54.8583 149.765 53.5567 150.682 51.87C151.599 50.1467 152.057 48.1483 152.057 45.875ZM178.005 30.365C180.608 30.365 182.882 30.9333 184.825 32.07C186.805 33.2067 188.272 34.6367 189.225 36.36V30.86H194.285V61.66C194.285 64.41 193.698 66.8483 192.525 68.975C191.352 71.1383 189.665 72.825 187.465 74.035C185.302 75.245 182.772 75.85 179.875 75.85C175.915 75.85 172.615 74.915 169.975 73.045C167.335 71.175 165.777 68.6267 165.3 65.4H170.25C170.8 67.2333 171.937 68.7 173.66 69.8C175.383 70.9367 177.455 71.505 179.875 71.505C182.625 71.505 184.862 70.6433 186.585 68.92C188.345 67.1967 189.225 64.7767 189.225 61.66V55.335C188.235 57.095 186.768 58.5617 184.825 59.735C182.882 60.9083 180.608 61.495 178.005 61.495C175.328 61.495 172.89 60.835 170.69 59.515C168.527 58.195 166.822 56.3433 165.575 53.96C164.328 51.5767 163.705 48.8633 163.705 45.82C163.705 42.74 164.328 40.045 165.575 37.735C166.822 35.3883 168.527 33.5733 170.69 32.29C172.89 31.0067 175.328 30.365 178.005 30.365ZM189.225 45.875C189.225 43.6017 188.767 41.6217 187.85 39.935C186.933 38.2483 185.687 36.965 184.11 36.085C182.57 35.1683 180.865 34.71 178.995 34.71C177.125 34.71 175.42 35.15 173.88 36.03C172.34 36.91 171.112 38.1933 170.195 39.88C169.278 41.5667 168.82 43.5467 168.82 45.82C168.82 48.13 169.278 50.1467 170.195 51.87C171.112 53.5567 172.34 54.8583 173.88 55.775C175.42 56.655 177.125 57.095 178.995 57.095C180.865 57.095 182.57 56.655 184.11 55.775C185.687 54.8583 186.933 53.5567 187.85 51.87C188.767 50.1467 189.225 48.1483 189.225 45.875ZM230.243 44.775C230.243 45.7283 230.188 46.7367 230.078 47.8H205.988C206.171 50.77 207.179 53.0983 209.013 54.785C210.883 56.435 213.138 57.26 215.778 57.26C217.941 57.26 219.738 56.765 221.168 55.775C222.634 54.7483 223.661 53.3917 224.248 51.705H229.638C228.831 54.6017 227.218 56.9667 224.798 58.8C222.378 60.5967 219.371 61.495 215.778 61.495C212.918 61.495 210.351 60.8533 208.078 59.57C205.841 58.2867 204.081 56.4717 202.798 54.125C201.514 51.7417 200.873 48.9917 200.873 45.875C200.873 42.7583 201.496 40.0267 202.743 37.68C203.989 35.3333 205.731 33.5367 207.968 32.29C210.241 31.0067 212.844 30.365 215.778 30.365C218.638 30.365 221.168 30.9883 223.368 32.235C225.568 33.4817 227.254 35.205 228.428 37.405C229.638 39.5683 230.243 42.025 230.243 44.775ZM225.073 43.73C225.073 41.8233 224.651 40.1917 223.808 38.835C222.964 37.4417 221.809 36.3967 220.343 35.7C218.913 34.9667 217.318 34.6 215.558 34.6C213.028 34.6 210.864 35.4067 209.068 37.02C207.308 38.6333 206.299 40.87 206.043 43.73H225.073ZM241.854 35.755C242.734 34.0317 243.981 32.6933 245.594 31.74C247.244 30.7867 249.243 30.31 251.589 30.31V35.48H250.269C244.659 35.48 241.854 38.5233 241.854 44.61V61H236.849V30.86H241.854V35.755Z" fill="#03030F"/>
</g>
<defs>
<filter id="filter0_d" x="0" y="9" width="68" height="73" filterUnits="userSpaceOnUse" color-interpolation-filters="sRGB">
<feFlood flood-opacity="0" result="BackgroundImageFix"/>
<feColorMatrix in="SourceAlpha" type="matrix" values="0 0 0 0 0 0 0 0 0 0 0 0 0 0 0 0 0 0 127 0"/>
<feOffset dy="4"/>
<feGaussianBlur stdDeviation="2"/>
<feColorMatrix type="matrix" values="0 0 0 0 0 0 0 0 0 0 0 0 0 0 0 0 0 0 0.25 0"/>
<feBlend mode="normal" in2="BackgroundImageFix" result="effect1_dropShadow"/>
<feBlend mode="normal" in="SourceGraphic" in2="effect1_dropShadow" result="shape"/>
</filter>
<filter id="filter1_d" x="56.365" y="30.31" width="199.224" height="53.54" filterUnits="userSpaceOnUse" color-interpolation-filters="sRGB">
<feFlood flood-opacity="0" result="BackgroundImageFix"/>
<feColorMatrix in="SourceAlpha" type="matrix" values="0 0 0 0 0 0 0 0 0 0 0 0 0 0 0 0 0 0 127 0"/>
<feOffset dy="4"/>
<feGaussianBlur stdDeviation="2"/>
<feColorMatrix type="matrix" values="0 0 0 0 0 0 0 0 0 0 0 0 0 0 0 0 0 0 0.25 0"/>
<feBlend mode="normal" in2="BackgroundImageFix" result="effect1_dropShadow"/>
<feBlend mode="normal" in="SourceGraphic" in2="effect1_dropShadow" result="shape"/>
</filter>
<linearGradient id="paint0_linear" x1="34" y1="9" x2="34" y2="74" gradientUnits="userSpaceOnUse">
<stop stop-color="#03030F"/>
<stop offset="1" stop-color="#524F8C"/>
</linearGradient>
</defs>
</svg>
